# Blender 4.1.1
# www.blender.org
mtllib armR.mtl
o armR
v 2.547468 0.537888 -0.380065
v 1.652414 0.218841 -0.404519
v 1.716552 2.365581 -0.330385
v 2.527712 0.537888 0.343043
v 1.632658 0.218841 0.318589
v 1.700748 2.365581 0.248068
v 1.121470 2.159094 0.232242
v 1.137274 2.159094 -0.346212
vn -0.3355 0.9420 -0.0092
vn -0.0152 -0.0341 0.9993
vn -0.9103 -0.4132 -0.0249
vn 0.0394 -0.0341 -0.9986
vn 0.3355 -0.9420 0.0092
vn 0.9664 0.2558 0.0264
vt 0.868361 0.651121
vt 0.934945 0.617610
vt 0.978979 0.705102
vt 0.912395 0.738613
vt 0.720415 0.815892
vt 0.691917 0.759267
vt 0.937721 0.808720
vt 0.740675 0.871974
vt 0.959768 0.904156
vt 0.754943 0.933740
vt 0.761336 0.993026
vt 0.698309 0.999822
vt 0.691917 0.940536
vt 0.967759 0.978267
s 0
usemtl Material.002
f 2/1/1 5/2/1 4/3/1 1/4/1
f 1/4/2 3/5/2 8/6/2 2/1/2
f 4/7/3 6/8/3 3/5/3 1/4/3
f 5/9/4 7/10/4 6/8/4 4/7/4
f 7/10/5 8/11/5 3/12/5 6/13/5
f 2/14/6 8/11/6 7/10/6 5/9/6
