# Blender 4.1.1
# www.blender.org
mtllib body.mtl
o bady
v 1.000000 2.604921 0.614533
v 0.630491 0.604921 0.614533
v -1.000000 2.604921 0.614533
v 1.000000 2.604921 -0.614533
v 0.630491 0.604921 -0.614533
v -1.000000 2.604921 -0.614533
v -0.630491 0.604921 -0.614533
v -0.630491 0.604921 0.614533
vn 0.9834 -0.1817 -0.0000
vn -0.0000 -0.0000 1.0000
vn -0.0000 1.0000 -0.0000
vn -0.0000 -0.0000 -1.0000
vn -0.9834 -0.1817 -0.0000
vn -0.0000 -1.0000 -0.0000
vt 0.000178 0.259323
vt 0.164044 0.128664
vt 0.243002 0.227688
vt 0.079137 0.358348
vt 0.340074 0.409489
vt 0.140339 0.472972
vt 0.325182 0.000178
vt 0.404141 0.099203
vt 0.178703 0.593672
vt 0.378437 0.530189
vt 0.404141 0.734672
vt 0.194909 0.722597
vt 0.069247 0.738393
vt 0.053041 0.609468
s 0
usemtl Material.002
f 5/1/1 4/2/1 1/3/1 2/4/1
f 2/4/2 1/3/2 3/5/2 8/6/2
f 1/3/3 4/2/3 6/7/3 3/8/3
f 7/9/4 6/10/4 4/11/4 5/12/4
f 8/6/5 3/5/5 6/10/5 7/9/5
f 5/12/6 2/13/6 8/14/6 7/9/6
