# Blender 4.1.1
# www.blender.org
mtllib armL.mtl
o armL
v -2.524469 0.537888 0.321784
v -1.629081 0.218841 0.321784
v -1.695220 2.365581 0.249430
v -2.524469 0.537888 -0.401594
v -1.629081 0.218841 -0.401594
v -1.695220 2.365581 -0.329240
v -1.115726 2.159094 -0.329240
v -1.115726 2.159094 0.249430
vn 0.3357 0.9420 -0.0000
vn -0.0121 -0.0341 -0.9993
vn 0.9107 -0.4132 -0.0000
vn -0.0121 -0.0341 0.9993
vn -0.3357 -0.9420 -0.0000
vn -0.9667 0.2558 -0.0000
vt 0.448532 0.617609
vt 0.515116 0.651121
vt 0.471081 0.738613
vt 0.404497 0.705102
vt 0.445756 0.808720
vt 0.642802 0.871974
vt 0.628533 0.933740
vt 0.423709 0.904156
vt 0.663061 0.815892
vt 0.691560 0.759267
vt 0.622141 0.993026
vt 0.691560 0.940536
vt 0.685168 0.999822
vt 0.415718 0.978267
s 0
usemtl Material.002
f 2/1/1 5/2/1 4/3/1 1/4/1
f 1/5/2 3/6/2 8/7/2 2/8/2
f 4/3/3 6/9/3 3/6/3 1/5/3
f 5/2/4 7/10/4 6/9/4 4/3/4
f 7/11/5 8/7/5 3/12/5 6/13/5
f 2/8/6 8/7/6 7/11/6 5/14/6
